<svg width="22" height="22" viewBox="0 0 22 22" fill="none" xmlns="http://www.w3.org/2000/svg">
<path d="M10.7083 0.0833435C7.89039 0.0833435 5.18788 1.20276 3.1953 3.19533C1.20273 5.18791 0.083313 7.89042 0.083313 10.7083C0.083313 13.5263 1.20273 16.2288 3.1953 18.2214C5.18788 20.2139 7.89039 21.3333 10.7083 21.3333C13.5262 21.3333 16.2287 20.2139 18.2213 18.2214C20.2139 16.2288 21.3333 13.5263 21.3333 10.7083C21.3333 7.89042 20.2139 5.18791 18.2213 3.19533C16.2287 1.20276 13.5262 0.0833435 10.7083 0.0833435ZM2.91665 7.16668H5.74998C6.1257 7.16668 6.48604 7.31593 6.75171 7.58161C7.01739 7.84729 7.16665 8.20762 7.16665 8.58334V10C7.16665 10.7083 6.62831 11.275 5.94831 11.3742L7.60581 14.25H5.96248L4.33331 11.4167V14.25H2.91665M9.99998 7.16668H12.8333V8.58334H9.99998V10H12.8333V11.4167H9.99998V12.8333H12.8333V14.25H9.99998C9.62426 14.25 9.26392 14.1008 8.99825 13.8351C8.73257 13.5694 8.58331 13.2091 8.58331 12.8333V8.58334C8.58331 8.20762 8.73257 7.84729 8.99825 7.58161C9.26392 7.31593 9.62426 7.16668 9.99998 7.16668ZM15.6666 7.16668H18.5V8.58334H15.6666V12.8333H18.5V14.25H15.6666C15.2909 14.25 14.9306 14.1008 14.6649 13.8351C14.3992 13.5694 14.25 13.2091 14.25 12.8333V8.58334C14.25 8.20762 14.3992 7.84729 14.6649 7.58161C14.9306 7.31593 15.2909 7.16668 15.6666 7.16668ZM4.33331 8.58334V10H5.74998V8.58334" fill="#A7A7A7"/>
</svg>
